<?xml version="1.0" encoding="UTF-8" standalone="no"?>
<!DOCTYPE svg PUBLIC "-//W3C//DTD SVG 1.1//EN" "http://www.w3.org/Graphics/SVG/1.1/DTD/svg11.dtd">
<svg width="100%" height="100%" viewBox="0 0 512 512" version="1.1" xmlns="http://www.w3.org/2000/svg" xmlns:xlink="http://www.w3.org/1999/xlink" xml:space="preserve" xmlns:serif="http://www.serif.com/" style="fill-rule:evenodd;clip-rule:evenodd;stroke-linejoin:round;stroke-miterlimit:2;">
    <g id="Layer-1" serif:id="Layer 1" transform="matrix(1,0,0,1,5.78354,76.1571)">
        <g transform="matrix(1,0,0,1,388.761,353.81)">
            <path d="M0,-222.979C0.89,-218.77 1.856,-214.884 2.521,-210.946C7.414,-181.971 7.771,-153.078 0.129,-124.478C-10.033,-86.448 -32.41,-57.153 -64.657,-35.054C-81.13,-23.765 -98.932,-15.053 -117.891,-8.943C-124.674,-6.757 -131.994,-5.887 -139.144,-5.24C-199.025,0.185 -249.665,-18.61 -290.128,-63.471C-294.15,-67.93 -297.404,-73.079 -301.307,-78.299C-297.635,-82.254 -294.54,-85.795 -291.229,-89.12C-268.382,-112.066 -241.569,-129.402 -212.706,-143.629C-158.324,-170.435 -100.955,-187.87 -41.092,-197.223C-35.752,-198.057 -30.339,-198.415 -24.985,-199.169C-23.123,-199.432 -21.335,-200.226 -19.493,-200.783C-20.404,-204.421 -22.829,-203.732 -24.607,-203.707C-37.453,-203.529 -50.341,-203.777 -63.136,-202.824C-112.87,-199.121 -160.367,-186.561 -205.6,-165.58C-243.246,-148.117 -278.057,-126.256 -308.936,-98.377C-309.901,-97.506 -311.004,-96.788 -312.236,-95.851C-316.678,-100.256 -318.165,-105.59 -319.72,-111.714C-317.641,-113.482 -315.495,-115.388 -313.266,-117.19C-283.778,-141.031 -251.129,-159.551 -216.337,-174.397C-166.918,-195.484 -115.379,-209.051 -62.303,-216.803C-44.031,-219.472 -25.588,-220.974 -7.216,-222.95C-5.225,-223.164 -3.191,-222.979 0,-222.979" style="fill:rgb(43,43,43);fill-rule:nonzero;"/>
        </g>
        <g transform="matrix(1,0,0,1,33.3813,4.02281)">
            <path d="M0,225.658C0.888,223.69 1.695,221.681 2.676,219.76C9.637,206.126 16.738,192.561 23.531,178.845C24.866,176.149 25.722,172.881 25.686,169.891C24.767,93.482 76.125,39.178 128.761,19.535C182.591,-0.554 235.737,1.008 285.51,33.135C305.254,45.879 321.649,62.15 333.903,82.347C335.362,84.752 336.348,87.444 337.904,90.748C330.707,91.354 324.492,91.866 318.279,92.402C258.202,97.578 199.872,110.264 143.946,133.134C101.984,150.294 62.897,172.41 27.985,201.494C19.863,208.26 12.342,215.747 4.54,222.897C3.317,224.017 2.066,225.108 0.827,226.212C0.552,226.027 0.276,225.843 0,225.658" style="fill:rgb(23,130,192);fill-rule:nonzero;"/>
        </g>
        <g transform="matrix(1,0,0,1,486.131,39.9757)">
            <path d="M0,74.081L-66.611,71.601C-86.851,48.063 -107.147,24.412 -127.415,0.846C-127.048,0.451 -126.936,0.254 -126.766,0.169C-126.597,0.085 -126.287,0 -126.146,0.085C-85.723,23.594 -45.272,47.132 -4.849,70.67C-3.298,71.572 -1.804,72.559 -0.338,73.574C-0.197,73.686 -0.113,73.856 0,74.081" style="fill:rgb(29,143,204);fill-rule:nonzero;"/>
        </g>
        <g transform="matrix(1,0,0,1,403.988,111.577)">
            <path d="M0,28.668C5.61,18.379 10.43,9.584 15.617,0.084C15.589,0.056 15.56,0.028 15.532,0L82.143,2.48C82.256,2.762 82.369,3.157 82.594,3.636C55.533,11.839 28.556,20.014 0,28.668" style="fill:rgb(43,43,43);fill-rule:nonzero;"/>
        </g>
    </g>
</svg>
