<?xml version="1.0" encoding="UTF-8" standalone="no"?>
<!DOCTYPE svg PUBLIC "-//W3C//DTD SVG 1.1//EN" "http://www.w3.org/Graphics/SVG/1.1/DTD/svg11.dtd">
<svg width="100%" height="100%" viewBox="0 0 150 40" version="1.1" xmlns="http://www.w3.org/2000/svg" xmlns:xlink="http://www.w3.org/1999/xlink" xml:space="preserve" xmlns:serif="http://www.serif.com/" style="fill-rule:evenodd;clip-rule:evenodd;stroke-linejoin:round;stroke-miterlimit:2;">
    <g transform="matrix(0.240857,0,0,0.240857,35.8333,33.3245)">
        <path d="M0,-79.101C0.316,-77.608 0.659,-76.229 0.894,-74.833C2.63,-64.554 2.757,-54.304 0.046,-44.158C-3.559,-30.667 -11.497,-20.275 -22.937,-12.435C-28.781,-8.431 -35.096,-5.34 -41.822,-3.172C-44.228,-2.397 -46.825,-2.088 -49.361,-1.859C-70.603,0.066 -88.568,-6.602 -102.922,-22.516C-104.349,-24.098 -105.503,-25.924 -106.888,-27.776C-105.585,-29.179 -104.487,-30.435 -103.313,-31.615C-95.208,-39.755 -85.696,-45.905 -75.457,-50.952C-56.165,-60.461 -35.813,-66.646 -14.577,-69.964C-12.683,-70.26 -10.763,-70.387 -8.863,-70.655C-8.203,-70.748 -7.569,-71.029 -6.915,-71.227C-7.238,-72.517 -8.098,-72.273 -8.729,-72.264C-13.286,-72.201 -17.858,-72.289 -22.397,-71.951C-40.04,-70.637 -56.89,-66.182 -72.936,-58.739C-86.291,-52.544 -98.64,-44.789 -109.594,-34.899C-109.936,-34.59 -110.328,-34.335 -110.765,-34.003C-112.34,-35.565 -112.868,-37.458 -113.42,-39.63C-112.682,-40.257 -111.921,-40.933 -111.13,-41.573C-100.67,-50.03 -89.087,-56.6 -76.745,-61.867C-59.214,-69.347 -40.93,-74.16 -22.102,-76.91C-15.62,-77.857 -9.077,-78.39 -2.56,-79.091C-1.853,-79.167 -1.132,-79.101 0,-79.101" style="fill:white;fill-rule:nonzero;"/>
    </g>
    <g transform="matrix(0.240857,0,0,0.240857,5.46841,3.43767)">
        <path d="M0,80.051C0.315,79.353 0.601,78.64 0.949,77.959C3.419,73.122 5.938,68.31 8.348,63.444C8.821,62.488 9.125,61.329 9.112,60.268C8.786,33.162 27.005,13.898 45.678,6.929C64.774,-0.197 83.627,0.357 101.284,11.754C108.288,16.275 114.104,22.047 118.451,29.212C118.969,30.065 119.318,31.02 119.871,32.192C117.317,32.407 115.113,32.589 112.909,32.779C91.597,34.615 70.904,39.115 51.065,47.228C36.179,53.316 22.313,61.161 9.927,71.479C7.046,73.879 4.378,76.535 1.61,79.071C1.177,79.469 0.733,79.856 0.294,80.248C0.196,80.182 0.098,80.117 0,80.051" style="fill:white;fill-rule:nonzero;"/>
    </g>
    <g transform="matrix(0.240857,0,0,0.240857,54.3755,14.3522)">
        <path d="M0,9.848C0.496,9.142 1.007,8.446 1.485,7.728C7.606,-1.445 13.785,-10.58 19.809,-19.816C22.264,-23.579 25.464,-25.551 29.991,-25.289C31.107,-25.225 32.233,-25.326 33.348,-25.253C36.4,-25.052 37.825,-23.213 37.116,-20.245C34.963,-11.238 32.757,-2.244 30.559,6.753C28.722,14.275 26.865,21.793 25.019,29.313C23.958,33.64 21.811,35.355 17.4,35.375C16.361,35.379 15.313,35.437 14.284,35.325C11.987,35.073 10.731,33.51 10.933,31.205C10.995,30.495 11.186,29.792 11.356,29.095C13.738,19.322 16.127,9.551 18.51,-0.221C18.564,-0.444 18.574,-0.678 18.675,-1.444C17.983,-0.556 17.553,-0.063 17.187,0.475C13.587,5.758 9.912,10.993 6.434,16.355C3.708,20.556 -0.119,21.968 -4.881,21.455C-7.741,21.146 -9.397,19.56 -9.974,16.564C-10.971,11.389 -11.93,6.208 -12.915,1.031C-13.046,0.343 -13.236,-0.335 -13.731,-1.031C-13.95,-0.243 -14.19,0.539 -14.384,1.333C-16.66,10.639 -18.95,19.941 -21.184,29.256C-21.71,31.445 -22.547,33.387 -24.625,34.476C-27.25,35.853 -30.055,35.655 -32.793,34.974C-34.226,34.618 -34.977,33.387 -35.013,31.886C-35.031,31.181 -34.891,30.457 -34.722,29.766C-30.706,13.325 -26.682,-3.114 -22.636,-19.548C-22.41,-20.466 -22.068,-21.376 -21.635,-22.215C-21.353,-22.763 -20.853,-23.226 -20.375,-23.641C-18.019,-25.685 -10.578,-26.005 -8.033,-24.215C-6.69,-23.271 -6.111,-21.905 -5.839,-20.368C-4.672,-13.764 -3.519,-7.157 -2.35,-0.553C-1.739,2.901 -1.106,6.351 -0.482,9.803C-0.322,9.818 -0.161,9.833 0,9.848" style="fill:white;fill-rule:nonzero;"/>
    </g>
    <g transform="matrix(0.240857,0,0,0.240857,108.166,21.3832)">
        <path d="M0,-31.756C2.139,-33.134 4.088,-34.538 6.173,-35.7C9.945,-37.801 13.986,-38.383 18.232,-37.42C22.184,-36.524 24.356,-34.46 24.556,-30.392C24.698,-27.488 24.319,-24.483 23.687,-21.63C22.063,-14.307 20.183,-7.04 18.375,0.242C17.312,4.518 15.133,6.171 10.662,6.184C9.783,6.186 8.896,6.237 8.026,6.139C5.628,5.869 4.266,4.241 4.614,1.847C4.889,-0.042 5.425,-1.895 5.875,-3.756C7.301,-9.652 8.76,-15.541 10.158,-21.443C10.414,-22.522 10.54,-23.652 10.557,-24.761C10.585,-26.691 9.805,-27.424 7.883,-27.755C4.879,-28.272 0.455,-25.13 -0.145,-22.211C-1.38,-16.195 -2.988,-10.255 -4.448,-4.284C-4.903,-2.424 -5.377,-0.567 -5.836,1.292C-6.332,3.303 -7.611,4.714 -9.435,5.525C-11.865,6.606 -14.453,6.431 -16.961,5.864C-18.575,5.499 -19.421,4.135 -19.375,2.435C-19.354,1.648 -19.165,0.857 -18.979,0.085C-17.278,-6.977 -15.546,-14.031 -13.86,-21.097C-13.584,-22.256 -13.385,-23.454 -13.329,-24.642C-13.233,-26.676 -14.079,-27.456 -16.123,-27.775C-18.713,-28.18 -23.402,-25.437 -24.106,-22.128C-25.535,-15.417 -27.296,-8.777 -28.924,-2.108C-29.208,-0.945 -29.511,0.214 -29.804,1.374C-30.313,3.386 -31.62,4.784 -33.454,5.561C-35.969,6.627 -38.653,6.44 -41.226,5.858C-43.221,5.407 -44.086,3.514 -43.565,1.281C-42.53,-3.15 -41.428,-7.564 -40.346,-11.983C-38.77,-18.418 -37.083,-24.828 -35.65,-31.295C-34.843,-34.935 -31.692,-37.364 -28.468,-36.992C-27.837,-36.92 -27.19,-36.994 -26.55,-36.978C-23.676,-36.907 -22.51,-35.825 -22.232,-32.982C-22.202,-32.671 -22.179,-32.36 -22.128,-31.761C-21.232,-32.47 -20.507,-33.052 -19.773,-33.623C-16.545,-36.131 -13.03,-37.865 -8.813,-37.856C-4.838,-37.848 -1.79,-36.493 -0.443,-32.453C-0.371,-32.236 -0.194,-32.055 0,-31.756" style="fill:white;fill-rule:nonzero;"/>
    </g>
    <g transform="matrix(0.240857,0,0,0.240857,88.4645,20.6412)">
        <path d="M0,-7.399C0.049,-6.528 0.043,-5.885 0.127,-5.254C0.568,-1.939 2.81,0.079 6.129,0.1C10.473,0.128 15.843,-3.498 16.702,-7.838C17.306,-10.889 17.909,-13.977 18.941,-16.897C20.123,-20.242 17.318,-24.477 13.064,-24.745C9.083,-24.996 6.066,-23.351 3.941,-20.087C1.394,-16.174 0.33,-11.779 0,-7.399M13.133,4.996C9.917,7.066 7.095,8.7 3.849,9.463C1.319,10.058 -1.224,10.221 -3.769,9.789C-8.273,9.024 -11.2,6.305 -12.832,2.123C-14.028,-0.939 -14.095,-4.145 -13.714,-7.336C-13.123,-12.286 -11.759,-17.039 -9.489,-21.501C-7.575,-25.261 -5.019,-28.496 -1.567,-30.977C2.131,-33.636 6.254,-34.934 10.81,-34.752C14.756,-34.596 18.112,-33.148 20.658,-30.04C20.956,-29.677 21.261,-29.32 21.732,-28.761C22.051,-29.375 22.268,-29.834 22.521,-30.274C23.857,-32.601 25.796,-33.932 28.556,-33.902C29.516,-33.891 30.477,-33.925 31.436,-33.894C34.493,-33.793 35.989,-31.958 35.302,-29.004C34.107,-23.871 32.838,-18.755 31.587,-13.636C28.761,-2.079 25.926,9.476 23.1,21.033C22.681,22.748 22.281,24.457 20.848,25.691C19.596,26.769 18.201,27.475 16.521,27.504C15.401,27.523 14.281,27.535 13.161,27.509C9.681,27.427 8.193,25.558 8.992,22.199C10.083,17.616 11.23,13.046 12.346,8.469C12.588,7.474 12.8,6.471 13.133,4.996" style="fill:white;fill-rule:nonzero;"/>
    </g>
    <g transform="matrix(0.240857,0,0,0.240857,126.474,11.9861)">
        <path d="M0,28.332C-0.88,31.882 -1.927,35.401 -2.595,38.99C-3.361,43.105 -6.404,45.593 -10.596,45.211C-11.39,45.139 -12.198,45.236 -12.995,45.183C-15.807,44.995 -17.221,43.287 -16.668,40.502C-16.077,37.528 -15.304,34.59 -14.583,31.642C-11.093,17.37 -7.584,3.102 -4.107,-11.174C-3.68,-12.928 -3.14,-14.649 -1.548,-15.619C-0.43,-16.3 0.884,-16.768 2.172,-17.028C3.325,-17.261 4.562,-17.098 5.762,-17.077C9.137,-17.016 10.509,-15.292 9.81,-11.928C9.453,-10.209 8.987,-8.513 8.571,-6.806C6.679,0.952 4.786,8.71 2.895,16.468C2.803,16.846 2.727,17.229 2.526,18.149C3.408,17.456 3.947,17.086 4.424,16.65C8.26,13.143 12.124,9.664 15.901,6.095C18.906,3.255 22.339,1.733 26.529,2.017C28.042,2.119 29.571,1.976 31.087,2.059C32.878,2.158 33.569,3.594 32.536,5.05C32.128,5.626 31.547,6.089 31.013,6.568C25.713,11.318 20.406,16.06 15.104,20.808C14.453,21.39 13.82,21.991 13.013,22.737C13.423,23.545 13.782,24.319 14.2,25.06C17.065,30.142 19.954,35.21 22.813,40.295C24.421,43.154 23.313,45.105 20.023,45.189C18.104,45.238 16.181,45.245 14.264,45.173C11.236,45.06 8.941,43.745 7.49,40.988C5.592,37.382 3.611,33.82 1.658,30.243C1.281,29.551 0.866,28.879 0.469,28.198C0.313,28.243 0.156,28.287 0,28.332" style="fill:white;fill-rule:nonzero;"/>
    </g>
    <g transform="matrix(0.240857,0,0,0.240857,69.9641,17.117)">
        <path d="M0,4.219C-3.82,4.103 -7.618,3.872 -11.233,5.485C-13.3,6.408 -14.735,7.925 -15.321,10.174C-16.1,13.163 -14.754,14.996 -11.655,15.123C-5.744,15.366 -0.402,10.478 0,4.219M2.095,-3.74C3.876,-8.836 1.639,-10.614 -2.409,-10.691C-6.672,-10.772 -10.856,-10.201 -15.015,-9.37C-16.636,-9.046 -18.258,-8.764 -19.388,-10.324C-20.593,-11.988 -19.69,-13.564 -18.85,-15.006C-17.765,-16.867 -16.165,-18.241 -14.007,-18.64C-7.309,-19.877 -0.578,-20.749 6.238,-19.677C7.573,-19.467 8.912,-19.172 10.192,-18.745C14.613,-17.274 16.701,-14.519 16.782,-9.835C16.813,-8.017 16.606,-6.149 16.193,-4.378C14.396,3.313 12.507,10.983 10.603,18.648C9.798,21.887 7.357,23.779 4.023,23.891C3.224,23.918 2.423,23.922 1.625,23.889C-1.372,23.764 -2.639,22.401 -2.632,19.35C-2.632,19.136 -2.685,18.922 -2.743,18.481C-3.553,19.106 -4.228,19.638 -4.914,20.154C-9.156,23.346 -13.904,24.968 -19.238,24.599C-26.098,24.125 -29.852,19.142 -28.498,12.383C-27.226,6.03 -23.587,1.589 -17.643,-0.97C-12.627,-3.131 -7.308,-3.605 -1.933,-3.735C-0.595,-3.767 0.745,-3.74 2.095,-3.74" style="fill:white;fill-rule:nonzero;"/>
    </g>
    <g transform="matrix(0.240857,0,0,0.240857,141.145,18.8338)">
        <path d="M0,-9.074C0.168,-9.607 0.286,-9.899 0.353,-10.203C1.637,-15.986 -1.234,-19.026 -7.073,-18.072C-11.38,-17.367 -15.04,-13.32 -15.151,-9.074L0,-9.074ZM-17.373,-0.934C-18.568,3.641 -16.787,6.717 -12.592,7.702C-8.543,8.654 -4.498,8.266 -0.464,7.515C0.397,7.355 1.27,7.145 2.136,7.15C4.189,7.161 5.394,8.691 4.859,10.687C4.083,13.581 2.33,15.822 -0.657,16.434C-7.279,17.791 -13.977,18.25 -20.593,16.408C-27.929,14.365 -31.75,9.011 -31.299,1.425C-30.953,-4.393 -29.358,-9.897 -26.319,-14.906C-21.548,-22.772 -14.361,-26.657 -5.315,-27.178C-2.785,-27.324 -0.19,-27.147 2.314,-26.745C8.746,-25.712 12.39,-21.794 13.087,-15.399C13.454,-12.023 12.985,-8.689 12.109,-5.442C11.382,-2.748 8.649,-0.964 5.439,-0.947C-1.273,-0.911 -7.984,-0.935 -14.696,-0.934L-17.373,-0.934" style="fill:white;fill-rule:nonzero;"/>
    </g>
    <g transform="matrix(0.240857,0,0,0.240857,80.2769,20.9353)">
        <path d="M0,-27.333C0.606,-27.836 1.211,-28.34 1.819,-28.841C5.869,-32.179 10.53,-34.134 15.696,-34.917C18.956,-35.411 20.763,-33.458 20.059,-30.249C19.445,-27.455 17.237,-25.462 14.249,-24.922C12.366,-24.582 10.443,-24.327 8.634,-23.738C1.892,-21.544 -2.484,-17.028 -4.231,-10.103C-5.266,-6.002 -6.225,-1.882 -7.233,2.226C-8.219,6.243 -10.453,8.011 -14.553,8.043C-15.593,8.052 -16.633,8.078 -17.671,8.035C-20.791,7.905 -22.215,6.215 -21.579,3.129C-20.886,-0.23 -19.989,-3.547 -19.176,-6.881C-17.38,-14.247 -15.604,-21.619 -13.761,-28.973C-13.456,-30.191 -13.037,-31.459 -12.343,-32.483C-11.225,-34.132 -9.58,-35.116 -7.484,-35.115C-6.045,-35.115 -4.603,-35.173 -3.168,-35.098C-0.671,-34.967 0.772,-33.19 0.382,-30.741C0.209,-29.653 -0.106,-28.588 -0.357,-27.513C-0.238,-27.453 -0.119,-27.393 0,-27.333" style="fill:white;fill-rule:nonzero;"/>
    </g>
    <g transform="matrix(0.240857,0,0,0.240857,117.093,12.4565)">
        <path d="M0,43.241C-0.719,43.241 -1.44,43.276 -2.157,43.235C-5.118,43.065 -6.56,41.367 -5.997,38.457C-5.467,35.719 -4.72,33.023 -4.059,30.311C-2.097,22.25 -0.12,14.193 1.828,6.129C2.268,4.306 2.823,2.525 4.492,1.482C5.478,0.866 6.622,0.301 7.75,0.165C9.562,-0.054 11.423,0.018 13.255,0.118C15.651,0.248 17.019,1.907 16.692,4.331C16.48,5.905 16.025,7.449 15.646,8.998C13.295,18.606 10.952,28.215 8.568,37.815C7.8,40.905 5.712,42.847 2.873,43.183C1.928,43.295 0.958,43.201 0,43.201L0,43.241" style="fill:white;fill-rule:nonzero;"/>
    </g>
    <g transform="matrix(0.240857,0,0,0.240857,44.1529,6.50952)">
        <path d="M0,26.28L-23.63,25.4C-30.81,17.05 -38.01,8.66 -45.2,0.3C-45.07,0.16 -45.03,0.09 -44.97,0.06C-44.91,0.03 -44.8,0 -44.75,0.03C-30.41,8.37 -16.06,16.72 -1.72,25.07C-1.17,25.39 -0.64,25.74 -0.12,26.1C-0.07,26.14 -0.04,26.2 0,26.28" style="fill:white;fill-rule:nonzero;"/>
    </g>
    <g transform="matrix(0.240857,0,0,0.240857,109.519,30.1485)">
        <path d="M0,0.29C0.027,-4.496 -3.391,-8.138 -7.902,-8.131C-12.329,-8.125 -15.679,-4.583 -15.708,0.123C-15.737,4.816 -12.183,8.624 -7.786,8.612C-3.438,8.6 -0.026,4.953 0,0.29M-8.003,12.152C-14.843,12.116 -20.046,6.928 -20.003,0.187C-19.96,-6.578 -14.503,-11.898 -7.683,-11.823C-0.889,-11.748 4.327,-6.509 4.303,0.217C4.279,7.025 -1.045,12.188 -8.003,12.152" style="fill:white;fill-rule:nonzero;"/>
    </g>
    <g transform="matrix(0.240857,0,0,0.240857,114.35,29.7668)">
        <path d="M0,3.775L0,0.31L9.529,0.31C9.616,1.09 9.73,1.695 9.741,2.303C9.769,3.82 9.544,5.374 9.794,6.85C10.312,9.902 8.724,11.374 6.218,12.461C3.173,13.781 0.041,14.155 -3.155,13.394C-9.086,11.982 -12.484,6.795 -11.857,0.317C-11.293,-5.512 -6.419,-9.993 -0.376,-10.236C3.19,-10.38 6.255,-9.342 8.785,-7.065C8.034,-6.167 7.279,-5.263 6.426,-4.243C5.675,-4.699 5.03,-5.127 4.352,-5.496C0.782,-7.437 -3.301,-6.781 -5.673,-3.902C-8.26,-0.762 -8.301,4.36 -5.764,7.443C-3.394,10.324 1.032,11.039 4.521,9.136C5.357,8.681 5.917,8.15 5.844,7.094C5.773,6.074 5.828,5.046 5.828,3.775L0,3.775Z" style="fill:white;fill-rule:nonzero;"/>
    </g>
    <g transform="matrix(0.240857,0,0,0.240857,120.169,28.2835)">
        <path d="M0,15.835C0.687,15.015 1.39,14.176 2.191,13.221C2.919,13.68 3.578,14.087 4.228,14.508C6.185,15.779 8.326,16.255 10.634,15.995C11.803,15.864 12.811,15.411 13.394,14.336C14.036,13.154 13.673,11.707 12.417,11.033C11.375,10.474 10.202,10.146 9.068,9.774C7.628,9.302 6.135,8.974 4.724,8.432C2.259,7.485 0.861,5.724 0.814,2.976C0.765,0.107 2.018,-1.938 4.568,-3.173C8.294,-4.977 13.7,-4.034 16.952,-0.958C16.34,-0.091 15.712,0.798 15.012,1.789C14.122,1.336 13.356,0.947 12.591,0.556C10.976,-0.272 9.266,-0.591 7.475,-0.302C6.022,-0.067 5.004,0.939 4.876,2.144C4.754,3.285 5.38,4.269 6.799,4.865C7.825,5.296 8.926,5.546 9.989,5.89C11.355,6.332 12.757,6.693 14.071,7.255C16.5,8.294 17.824,10.13 17.778,12.861C17.732,15.612 16.48,17.593 14.023,18.782C9.827,20.812 3.468,19.507 0,15.835" style="fill:white;fill-rule:nonzero;"/>
    </g>
    <g transform="matrix(0.240857,0,0,0.240857,142.874,32.3451)">
        <path d="M0,-18.179C-0.918,-16.908 -1.562,-16.016 -2.247,-15.067C-3.313,-15.615 -4.18,-16.273 -5.149,-16.507C-6.674,-16.876 -8.272,-17.142 -9.832,-17.11C-11.196,-17.081 -12.117,-15.999 -12.276,-14.857C-12.456,-13.566 -11.982,-12.675 -10.536,-12.051C-9.443,-11.579 -8.259,-11.32 -7.121,-10.948C-5.756,-10.501 -4.362,-10.119 -3.045,-9.559C-0.679,-8.553 0.575,-6.686 0.569,-4.118C0.562,-1.418 -0.618,0.69 -3.107,1.864C-5.42,2.955 -7.864,3.094 -10.377,2.591C-13.286,2.008 -15.174,1.091 -17.221,-0.989C-16.498,-1.858 -15.757,-2.749 -14.995,-3.666C-14.061,-3.066 -13.274,-2.53 -12.459,-2.043C-10.522,-0.885 -8.409,-0.576 -6.214,-0.932C-4.696,-1.179 -3.747,-2.122 -3.579,-3.345C-3.399,-4.667 -3.958,-5.556 -5.569,-6.231C-6.521,-6.63 -7.541,-6.865 -8.532,-7.172C-9.828,-7.574 -11.15,-7.907 -12.417,-8.387C-14.99,-9.36 -16.425,-11.21 -16.469,-14.021C-16.511,-16.795 -14.98,-19.08 -12.326,-20.179C-9.684,-21.273 -6.986,-21.161 -4.349,-20.264C-2.943,-19.785 -1.647,-18.983 0,-18.179" style="fill:white;fill-rule:nonzero;"/>
    </g>
    <g transform="matrix(0.240857,0,0,0.240857,137.962,32.2757)">
        <path d="M0,-17.067C-0.858,-16.081 -1.63,-15.193 -2.374,-14.337C-8.23,-17.801 -11.902,-17.748 -14.743,-14.271C-17.442,-10.969 -17.271,-5.672 -14.367,-2.584C-11.334,0.64 -7.477,0.521 -2.253,-3.158C-1.575,-2.314 -0.855,-1.419 -0.117,-0.499C-2.982,3.868 -11.912,4.899 -16.824,0.626C-21.851,-3.747 -22.373,-11.823 -17.856,-16.812C-13.377,-21.76 -5.185,-21.966 0,-17.067" style="fill:white;fill-rule:nonzero;"/>
    </g>
    <g transform="matrix(0.240857,0,0,0.240857,126.877,32.1155)">
        <path d="M0,-16.15L-7.336,-16.15L-7.336,-19.54L11.249,-19.54L11.249,-16.209L4.067,-16.209C3.847,-9.558 4.077,-3.139 3.931,3.39L0,3.39L0,-16.15Z" style="fill:white;fill-rule:nonzero;"/>
    </g>
    <g transform="matrix(0.240857,0,0,0.240857,104.209,28.2254)">
        <path d="M0,16.143C0.054,16.949 0.117,17.489 0.118,18.03C0.12,18.491 0.051,18.953 0.004,19.527L-15.984,19.527L-15.984,-3.384L-12.042,-3.384L-12.042,16.143L0,16.143Z" style="fill:white;fill-rule:nonzero;"/>
    </g>
    <g transform="matrix(0.240857,0,0,0.240857,120.803,10.4609)">
        <path d="M0,-10.704C0.956,-10.704 1.924,-10.8 2.866,-10.684C4.772,-10.448 6.061,-8.999 6.026,-7.102C5.938,-2.473 2.648,0.012 -0.53,0.028C-2.044,0.036 -3.563,0.096 -5.073,0.014C-8.016,-0.145 -9.351,-1.891 -8.847,-4.805C-8.209,-8.499 -5.653,-10.691 -1.914,-10.747C-1.276,-10.756 -0.638,-10.748 0,-10.748L0,-10.704" style="fill:white;fill-rule:nonzero;"/>
    </g>
    <g transform="matrix(0.240857,0,0,0.240857,-14.5525,-104.902)">
        <rect x="550.547" y="549.307" width="3.808" height="22.885" style="fill:white;"/>
    </g>
    <g transform="matrix(-0.240857,0,0,0.240857,276.877,-104.879)">
        <rect x="603.108" y="549.25" width="3.753" height="22.907" style="fill:white;"/>
    </g>
    <g transform="matrix(0.240857,0,0,0.240857,37.1343,12.6273)">
        <path d="M0,10.17C1.99,6.52 3.7,3.4 5.54,0.03C5.53,0.02 5.52,0.01 5.51,0L29.14,0.88C29.18,0.98 29.22,1.12 29.3,1.29C19.7,4.2 10.13,7.1 0,10.17" style="fill:white;fill-rule:nonzero;"/>
    </g>
</svg>
