<?xml version="1.0" encoding="UTF-8" standalone="no"?>
<!DOCTYPE svg PUBLIC "-//W3C//DTD SVG 1.1//EN" "http://www.w3.org/Graphics/SVG/1.1/DTD/svg11.dtd">
<svg width="100%" height="100%" viewBox="0 0 512 512" version="1.1" xmlns="http://www.w3.org/2000/svg" xmlns:xlink="http://www.w3.org/1999/xlink" xml:space="preserve" xmlns:serif="http://www.serif.com/" style="fill-rule:evenodd;clip-rule:evenodd;stroke-linejoin:round;stroke-miterlimit:2;">
    <g id="Layer-1" serif:id="Layer 1">
    </g>
    <g id="Layer-11" serif:id="Layer 1" transform="matrix(1,0,0,1,65.7615,77.4028)">
        <g transform="matrix(1,0,0,1,33.828,261.484)">
            <path d="M0,9.513C0.479,8.831 0.972,8.158 1.435,7.465C7.348,-1.397 13.317,-10.223 19.138,-19.145C21.51,-22.781 24.601,-24.686 28.974,-24.433C30.053,-24.371 31.141,-24.469 32.218,-24.398C35.166,-24.204 36.543,-22.427 35.857,-19.56C33.778,-10.858 31.646,-2.169 29.523,6.522C27.748,13.79 25.954,21.053 24.171,28.318C23.146,32.499 21.072,34.156 16.811,34.174C15.807,34.179 14.794,34.235 13.8,34.126C11.581,33.883 10.368,32.373 10.562,30.146C10.622,29.46 10.807,28.781 10.971,28.107C13.272,18.666 15.58,9.226 17.883,-0.215C17.935,-0.43 17.944,-0.656 18.042,-1.396C17.374,-0.538 16.958,-0.062 16.604,0.457C13.126,5.562 9.576,10.619 6.215,15.799C3.582,19.858 -0.115,21.222 -4.715,20.726C-7.478,20.428 -9.078,18.896 -9.636,16.001C-10.6,11.002 -11.526,5.996 -12.477,0.995C-12.604,0.33 -12.787,-0.324 -13.266,-0.997C-13.477,-0.236 -13.709,0.52 -13.896,1.287C-16.095,10.277 -18.307,19.264 -20.466,28.263C-20.974,30.378 -21.783,32.254 -23.79,33.307C-26.326,34.637 -29.036,34.446 -31.681,33.788C-33.066,33.443 -33.791,32.254 -33.827,30.804C-33.843,30.123 -33.708,29.423 -33.545,28.756C-29.665,12.872 -25.777,-3.01 -21.869,-18.887C-21.651,-19.774 -21.32,-20.653 -20.902,-21.463C-20.629,-21.992 -20.146,-22.44 -19.685,-22.84C-17.408,-24.815 -10.219,-25.124 -7.76,-23.395C-6.463,-22.483 -5.904,-21.164 -5.641,-19.679C-4.513,-13.298 -3.4,-6.915 -2.271,-0.535C-1.68,2.802 -1.068,6.135 -0.466,9.469C-0.311,9.484 -0.155,9.498 0,9.513" style="fill:white;fill-rule:nonzero;"/>
        </g>
        <g transform="matrix(1,0,0,1,249.586,289.685)">
            <path d="M0,-30.68C2.066,-32.011 3.949,-33.368 5.964,-34.49C9.608,-36.52 13.512,-37.082 17.614,-36.152C21.432,-35.287 23.53,-33.292 23.723,-29.362C23.861,-26.556 23.495,-23.653 22.884,-20.897C21.315,-13.822 19.499,-6.802 17.752,0.233C16.725,4.365 14.62,5.962 10.301,5.974C9.452,5.976 8.594,6.025 7.754,5.931C5.437,5.67 4.121,4.097 4.458,1.784C4.723,-0.041 5.241,-1.831 5.676,-3.629C7.053,-9.326 8.463,-15.014 9.814,-20.717C10.061,-21.759 10.183,-22.851 10.199,-23.922C10.226,-25.787 9.473,-26.495 7.615,-26.815C4.714,-27.314 0.439,-24.279 -0.14,-21.459C-1.333,-15.646 -2.887,-9.907 -4.297,-4.14C-4.737,-2.342 -5.195,-0.549 -5.638,1.248C-6.117,3.191 -7.353,4.554 -9.115,5.338C-11.463,6.382 -13.963,6.212 -16.386,5.665C-17.946,5.313 -18.763,3.995 -18.718,2.352C-18.698,1.592 -18.516,0.827 -18.336,0.082C-16.692,-6.741 -15.019,-13.556 -13.391,-20.382C-13.123,-21.502 -12.931,-22.659 -12.877,-23.807C-12.784,-25.773 -13.602,-26.526 -15.577,-26.834C-18.079,-27.225 -22.609,-24.575 -23.289,-21.378C-24.669,-14.895 -26.371,-8.48 -27.944,-2.037C-28.218,-0.913 -28.51,0.206 -28.794,1.327C-29.286,3.271 -30.548,4.621 -32.32,5.372C-34.75,6.402 -37.343,6.221 -39.829,5.659C-41.755,5.223 -42.592,3.395 -42.088,1.237C-41.088,-3.043 -40.024,-7.308 -38.978,-11.578C-37.456,-17.794 -35.826,-23.987 -34.441,-30.234C-33.662,-33.752 -30.618,-36.098 -27.503,-35.739C-26.893,-35.669 -26.268,-35.74 -25.65,-35.725C-22.873,-35.656 -21.747,-34.611 -21.479,-31.864C-21.449,-31.564 -21.427,-31.264 -21.378,-30.685C-20.512,-31.37 -19.812,-31.932 -19.103,-32.483C-15.984,-34.907 -12.588,-36.582 -8.514,-36.573C-4.674,-36.565 -1.729,-35.256 -0.428,-31.353C-0.359,-31.144 -0.188,-30.969 0,-30.68" style="fill:white;fill-rule:nonzero;"/>
        </g>
        <g transform="matrix(1,0,0,1,170.562,286.709)">
            <path d="M0,-7.149C0.047,-6.308 0.041,-5.686 0.123,-5.076C0.548,-1.874 2.714,0.075 5.921,0.096C10.118,0.123 15.306,-3.38 16.136,-7.573C16.72,-10.521 17.302,-13.504 18.299,-16.325C19.441,-19.557 16.731,-23.648 12.621,-23.907C8.775,-24.15 5.861,-22.56 3.808,-19.407C1.347,-15.627 0.319,-11.38 0,-7.149M12.688,4.825C9.581,6.825 6.854,8.404 3.718,9.141C1.274,9.716 -1.183,9.874 -3.641,9.456C-7.993,8.718 -10.82,6.091 -12.397,2.05C-13.552,-0.908 -13.618,-4.006 -13.249,-7.088C-12.678,-11.871 -11.361,-16.462 -9.167,-20.773C-7.319,-24.405 -4.849,-27.531 -1.514,-29.928C2.059,-32.497 6.042,-33.75 10.444,-33.575C14.256,-33.424 17.498,-32.025 19.958,-29.023C20.245,-28.672 20.541,-28.327 20.995,-27.786C21.303,-28.38 21.514,-28.824 21.757,-29.248C23.048,-31.497 24.922,-32.782 27.588,-32.753C28.515,-32.743 29.444,-32.776 30.37,-32.746C33.324,-32.649 34.769,-30.876 34.105,-28.022C32.951,-23.063 31.725,-18.12 30.516,-13.174C27.786,-2.009 25.047,9.154 22.317,20.319C21.912,21.976 21.526,23.627 20.141,24.819C18.932,25.861 17.584,26.543 15.961,26.571C14.879,26.589 13.797,26.601 12.715,26.575C9.353,26.497 7.915,24.691 8.687,21.446C9.741,17.018 10.849,12.603 11.927,8.182C12.161,7.22 12.366,6.251 12.688,4.825" style="fill:white;fill-rule:nonzero;"/>
        </g>
        <g transform="matrix(1,0,0,1,323.024,251.992)">
            <path d="M0,27.371C-0.85,30.801 -1.861,34.2 -2.507,37.668C-3.248,41.643 -6.187,44.047 -10.237,43.678C-11.004,43.608 -11.785,43.702 -12.554,43.65C-15.271,43.469 -16.637,41.819 -16.103,39.129C-15.532,36.256 -14.785,33.417 -14.089,30.569C-10.717,16.78 -7.327,2.996 -3.968,-10.796C-3.555,-12.49 -3.034,-14.153 -1.495,-15.09C-0.415,-15.748 0.854,-16.2 2.099,-16.452C3.212,-16.676 4.408,-16.519 5.567,-16.498C8.827,-16.44 10.153,-14.775 9.477,-11.524C9.132,-9.864 8.683,-8.225 8.28,-6.576C6.452,0.919 4.624,8.414 2.797,15.909C2.708,16.275 2.635,16.644 2.44,17.533C3.293,16.863 3.813,16.507 4.274,16.085C7.98,12.697 11.713,9.336 15.362,5.887C18.265,3.145 21.582,1.674 25.63,1.948C27.092,2.047 28.569,1.908 30.033,1.989C31.763,2.084 32.431,3.472 31.434,4.878C31.039,5.435 30.478,5.882 29.962,6.344C24.842,10.934 19.714,15.515 14.592,20.102C13.963,20.664 13.351,21.245 12.572,21.966C12.968,22.746 13.315,23.494 13.718,24.21C16.487,29.119 19.277,34.016 22.04,38.928C23.593,41.691 22.522,43.575 19.344,43.657C17.491,43.704 15.633,43.711 13.78,43.642C10.855,43.532 8.638,42.261 7.236,39.598C5.402,36.114 3.489,32.673 1.602,29.217C1.237,28.549 0.837,27.9 0.453,27.242C0.302,27.285 0.151,27.328 0,27.371" style="fill:white;fill-rule:nonzero;"/>
        </g>
        <g transform="matrix(1,0,0,1,96.3555,272.572)">
            <path d="M0,4.076C-3.69,3.964 -7.36,3.741 -10.852,5.299C-12.849,6.191 -14.235,7.656 -14.802,9.83C-15.555,12.717 -14.254,14.487 -11.26,14.61C-5.55,14.845 -0.389,10.123 0,4.076M2.024,-3.613C3.745,-8.536 1.583,-10.254 -2.327,-10.328C-6.446,-10.407 -10.488,-9.855 -14.506,-9.052C-16.072,-8.739 -17.639,-8.467 -18.731,-9.974C-19.895,-11.581 -19.023,-13.104 -18.211,-14.498C-17.163,-16.295 -15.617,-17.623 -13.532,-18.008C-7.062,-19.203 -0.558,-20.046 6.027,-19.01C7.316,-18.807 8.61,-18.522 9.847,-18.11C14.118,-16.689 16.135,-14.026 16.213,-9.502C16.243,-7.746 16.044,-5.941 15.644,-4.23C13.908,3.201 12.083,10.61 10.243,18.016C9.466,21.145 7.107,22.973 3.886,23.081C3.115,23.107 2.341,23.112 1.57,23.079C-1.326,22.958 -2.55,21.642 -2.543,18.694C-2.542,18.487 -2.594,18.28 -2.65,17.855C-3.433,18.459 -4.085,18.972 -4.747,19.471C-8.846,22.555 -13.433,24.122 -18.586,23.765C-25.213,23.307 -28.84,18.493 -27.532,11.963C-26.303,5.826 -22.788,1.536 -17.045,-0.937C-12.199,-3.025 -7.06,-3.483 -1.868,-3.608C-0.575,-3.639 0.72,-3.613 2.024,-3.613" style="fill:white;fill-rule:nonzero;"/>
        </g>
        <g transform="matrix(1,0,0,1,381.871,279.459)">
            <path d="M0,-8.767C0.163,-9.282 0.276,-9.564 0.341,-9.858C1.582,-15.444 -1.192,-18.382 -6.833,-17.46C-10.994,-16.779 -14.53,-12.869 -14.638,-8.767L0,-8.767ZM-16.784,-0.903C-17.939,3.517 -16.218,6.488 -12.165,7.441C-8.253,8.36 -4.345,7.985 -0.449,7.26C0.383,7.105 1.227,6.903 2.064,6.907C4.047,6.918 5.212,8.396 4.694,10.325C3.945,13.12 2.251,15.285 -0.635,15.876C-7.033,17.187 -13.503,17.631 -19.895,15.851C-26.982,13.877 -30.674,8.705 -30.238,1.376C-29.904,-4.244 -28.363,-9.562 -25.427,-14.401C-20.817,-22.001 -13.874,-25.754 -5.134,-26.257C-2.691,-26.398 -0.184,-26.228 2.236,-25.839C8.45,-24.841 11.97,-21.056 12.643,-14.877C12.998,-11.616 12.545,-8.396 11.699,-5.258C10.996,-2.655 8.356,-0.932 5.255,-0.916C-1.229,-0.881 -7.714,-0.904 -14.198,-0.903L-16.784,-0.903" style="fill:white;fill-rule:nonzero;"/>
        </g>
        <g transform="matrix(1,0,0,1,137.721,287.887)">
            <path d="M0,-26.406C0.586,-26.892 1.17,-27.379 1.757,-27.862C5.67,-31.088 10.173,-32.976 15.164,-33.733C18.313,-34.211 20.059,-32.323 19.379,-29.223C18.786,-26.524 16.652,-24.598 13.766,-24.077C11.947,-23.748 10.089,-23.502 8.341,-22.933C1.828,-20.813 -2.399,-16.45 -4.088,-9.76C-5.088,-5.798 -6.014,-1.817 -6.988,2.151C-7.941,6.032 -10.099,7.74 -14.06,7.771C-15.064,7.779 -16.07,7.805 -17.072,7.763C-20.086,7.637 -21.462,6.004 -20.847,3.023C-20.178,-0.222 -19.311,-3.426 -18.526,-6.647C-16.791,-13.764 -15.075,-20.886 -13.295,-27.991C-13,-29.167 -12.595,-30.392 -11.924,-31.381C-10.845,-32.974 -9.255,-33.926 -7.231,-33.925C-5.84,-33.924 -4.447,-33.98 -3.061,-33.908C-0.648,-33.781 0.746,-32.064 0.369,-29.698C0.202,-28.647 -0.103,-27.618 -0.345,-26.58C-0.23,-26.522 -0.115,-26.464 0,-26.406" style="fill:white;fill-rule:nonzero;"/>
        </g>
        <g transform="matrix(1,0,0,1,285.395,253.878)">
            <path d="M0,41.776C-0.695,41.776 -1.392,41.81 -2.084,41.77C-4.945,41.606 -6.338,39.965 -5.794,37.155C-5.282,34.509 -4.56,31.905 -3.922,29.284C-2.025,21.497 -0.116,13.713 1.766,5.922C2.192,4.161 2.727,2.44 4.34,1.432C5.292,0.838 6.398,0.292 7.487,0.16C9.238,-0.052 11.036,0.018 12.806,0.114C15.12,0.241 16.442,1.843 16.126,4.185C15.921,5.706 15.482,7.197 15.116,8.693C12.845,17.976 10.581,27.26 8.277,36.534C7.536,39.52 5.519,41.395 2.776,41.72C1.863,41.828 0.926,41.737 0,41.737L0,41.776" style="fill:white;fill-rule:nonzero;"/>
        </g>
        <g transform="matrix(1,0,0,1,255.013,324.843)">
            <path d="M0,0.28C0.026,-4.343 -3.276,-7.862 -7.634,-7.856C-11.911,-7.85 -15.147,-4.428 -15.176,0.119C-15.204,4.653 -11.77,8.332 -7.523,8.32C-3.322,8.308 -0.025,4.785 0,0.28M-7.732,11.74C-14.34,11.705 -19.366,6.693 -19.325,0.18C-19.283,-6.356 -14.011,-11.495 -7.422,-11.422C-0.859,-11.35 4.181,-6.288 4.157,0.209C4.134,6.787 -1.01,11.775 -7.732,11.74" style="fill:white;fill-rule:nonzero;"/>
        </g>
        <g transform="matrix(1,0,0,1,274.392,323.312)">
            <path d="M0,3.647L0,0.299L9.206,0.299C9.29,1.053 9.4,1.638 9.411,2.224C9.438,3.691 9.22,5.192 9.462,6.618C9.963,9.566 8.428,10.988 6.007,12.038C3.066,13.314 0.039,13.675 -3.048,12.94C-8.778,11.576 -12.06,6.564 -11.455,0.306C-10.91,-5.325 -6.201,-9.654 -0.363,-9.889C3.081,-10.028 6.043,-9.026 8.487,-6.826C7.762,-5.958 7.032,-5.085 6.208,-4.099C5.483,-4.54 4.859,-4.953 4.205,-5.309C0.755,-7.185 -3.189,-6.552 -5.48,-3.77C-7.98,-0.736 -8.02,4.212 -5.569,7.191C-3.278,9.974 0.997,10.665 4.368,8.827C5.175,8.386 5.716,7.873 5.646,6.854C5.577,5.868 5.631,4.875 5.631,3.647L0,3.647Z" style="fill:white;fill-rule:nonzero;"/>
        </g>
        <g transform="matrix(1,0,0,1,297.731,317.363)">
            <path d="M0,15.298C0.664,14.506 1.343,13.696 2.117,12.773C2.82,13.216 3.457,13.609 4.085,14.016C5.975,15.244 8.043,15.704 10.274,15.453C11.403,15.326 12.376,14.888 12.94,13.849C13.56,12.708 13.21,11.31 11.996,10.659C10.99,10.118 9.857,9.802 8.761,9.443C7.369,8.987 5.927,8.67 4.564,8.146C2.183,7.231 0.832,5.53 0.787,2.875C0.74,0.104 1.95,-1.873 4.413,-3.065C8.012,-4.808 13.236,-3.897 16.377,-0.926C15.786,-0.089 15.179,0.771 14.503,1.728C13.644,1.29 12.903,0.915 12.164,0.537C10.604,-0.263 8.952,-0.572 7.222,-0.292C5.818,-0.065 4.835,0.907 4.71,2.071C4.593,3.174 5.197,4.124 6.568,4.7C7.56,5.116 8.623,5.358 9.65,5.69C10.97,6.117 12.324,6.466 13.594,7.009C15.941,8.013 17.22,9.786 17.175,12.425C17.131,15.083 15.921,16.997 13.548,18.145C9.494,20.106 3.35,18.846 0,15.298" style="fill:white;fill-rule:nonzero;"/>
        </g>
        <g transform="matrix(1,0,0,1,388.805,333.654)">
            <path d="M0,-17.563C-0.886,-16.335 -1.509,-15.474 -2.171,-14.557C-3.201,-15.086 -4.038,-15.722 -4.974,-15.948C-6.448,-16.305 -7.992,-16.561 -9.499,-16.53C-10.817,-16.502 -11.706,-15.457 -11.86,-14.353C-12.033,-13.106 -11.575,-12.245 -10.179,-11.642C-9.123,-11.187 -7.979,-10.936 -6.88,-10.577C-5.561,-10.145 -4.214,-9.776 -2.941,-9.235C-0.656,-8.264 0.556,-6.46 0.549,-3.978C0.543,-1.37 -0.597,0.667 -3.002,1.801C-5.237,2.854 -7.597,2.989 -10.025,2.503C-12.835,1.939 -14.66,1.054 -16.637,-0.955C-15.939,-1.795 -15.223,-2.656 -14.487,-3.542C-13.584,-2.962 -12.824,-2.445 -12.037,-1.974C-10.165,-0.855 -8.124,-0.556 -6.003,-0.901C-4.537,-1.139 -3.62,-2.05 -3.458,-3.232C-3.284,-4.509 -3.824,-5.368 -5.38,-6.02C-6.3,-6.405 -7.286,-6.633 -8.243,-6.929C-9.495,-7.317 -10.772,-7.64 -11.996,-8.103C-14.481,-9.043 -15.868,-10.83 -15.91,-13.546C-15.952,-16.226 -14.473,-18.434 -11.908,-19.495C-9.356,-20.552 -6.75,-20.444 -4.202,-19.577C-2.843,-19.115 -1.591,-18.339 0,-17.563" style="fill:white;fill-rule:nonzero;"/>
        </g>
        <g transform="matrix(1,0,0,1,369.101,333.375)">
            <path d="M0,-16.488C-0.829,-15.535 -1.575,-14.677 -2.294,-13.851C-7.951,-17.197 -11.499,-17.146 -14.243,-13.787C-16.85,-10.597 -16.685,-5.479 -13.88,-2.496C-10.95,0.618 -7.223,0.504 -2.176,-3.051C-1.521,-2.236 -0.826,-1.37 -0.113,-0.482C-2.881,3.737 -11.508,4.733 -16.253,0.605C-21.11,-3.62 -21.615,-11.422 -17.251,-16.242C-12.924,-21.022 -5.009,-21.221 0,-16.488" style="fill:white;fill-rule:nonzero;"/>
        </g>
        <g transform="matrix(1,0,0,1,324.64,332.733)">
            <path d="M0,-15.603L-7.087,-15.603L-7.087,-18.878L10.868,-18.878L10.868,-15.66L3.929,-15.66C3.717,-9.235 3.938,-3.033 3.798,3.275L0,3.275L0,-15.603Z" style="fill:white;fill-rule:nonzero;"/>
        </g>
        <g transform="matrix(1,0,0,1,233.716,317.129)">
            <path d="M0,15.596C0.052,16.375 0.113,16.897 0.114,17.419C0.116,17.865 0.049,18.311 0.003,18.865L-15.442,18.865L-15.442,-3.269L-11.634,-3.269L-11.634,15.596L0,15.596Z" style="fill:white;fill-rule:nonzero;"/>
        </g>
        <g transform="matrix(1,0,0,1,300.275,245.874)">
            <path d="M0,-10.341C0.924,-10.341 1.859,-10.434 2.769,-10.321C4.611,-10.094 5.856,-8.694 5.821,-6.861C5.737,-2.389 2.558,0.012 -0.512,0.027C-1.975,0.035 -3.442,0.093 -4.901,0.014C-7.744,-0.14 -9.034,-1.827 -8.547,-4.642C-7.931,-8.21 -5.461,-10.329 -1.849,-10.382C-1.233,-10.392 -0.616,-10.384 0,-10.384L0,-10.341" style="fill:white;fill-rule:nonzero;"/>
        </g>
        <g transform="matrix(1,0,0,1,0,313.141)">
            <rect x="289.236" y="0.689" width="3.679" height="22.11" style="fill:white;"/>
        </g>
        <g transform="matrix(-1,0,0,1,683.656,313.231)">
            <rect x="340.015" y="0.634" width="3.626" height="22.13" style="fill:white;"/>
        </g>
        <g transform="matrix(1.12186,0,0,1.12186,313.831,220.376)">
            <path d="M0,-142.856C0.57,-140.159 1.189,-137.669 1.615,-135.147C4.75,-116.583 4.979,-98.072 0.083,-79.749C-6.428,-55.384 -20.764,-36.616 -41.424,-22.458C-51.978,-15.225 -63.383,-9.643 -75.53,-5.729C-79.875,-4.328 -84.565,-3.771 -89.146,-3.356C-127.51,0.119 -159.954,-11.922 -185.877,-40.664C-188.454,-43.52 -190.539,-46.819 -193.039,-50.163C-190.687,-52.697 -188.704,-54.966 -186.583,-57.096C-171.945,-71.797 -154.767,-82.903 -136.275,-92.018C-101.434,-109.192 -64.679,-120.363 -26.326,-126.355C-22.905,-126.889 -19.437,-127.118 -16.007,-127.602C-14.814,-127.77 -13.669,-128.279 -12.489,-128.636C-13.072,-130.966 -14.626,-130.525 -15.765,-130.509C-23.995,-130.395 -32.252,-130.554 -40.449,-129.943C-72.313,-127.571 -102.743,-119.524 -131.722,-106.082C-155.841,-94.894 -178.143,-80.888 -197.927,-63.027C-198.545,-62.469 -199.252,-62.009 -200.041,-61.408C-202.887,-64.23 -203.84,-67.648 -204.836,-71.571C-203.504,-72.704 -202.129,-73.925 -200.701,-75.08C-181.809,-90.354 -160.892,-102.219 -138.601,-111.731C-106.94,-125.241 -73.92,-133.932 -39.916,-138.899C-28.21,-140.609 -16.393,-141.572 -4.623,-142.837C-3.347,-142.975 -2.044,-142.856 0,-142.856" style="fill:white;fill-rule:nonzero;"/>
        </g>
        <g transform="matrix(1.12186,0,0,1.12186,58.4037,-31.0299)">
            <path d="M0,144.573C0.569,143.312 1.086,142.025 1.714,140.794C6.174,132.059 10.723,123.369 15.076,114.581C15.931,112.854 16.479,110.76 16.456,108.845C15.867,59.892 48.771,25.1 82.494,12.515C116.981,-0.355 151.03,0.645 182.919,21.228C195.568,29.393 206.072,39.818 213.923,52.758C214.857,54.298 215.489,56.023 216.486,58.14C211.875,58.528 207.893,58.856 203.913,59.199C165.423,62.515 128.053,70.643 92.223,85.296C65.339,96.289 40.297,110.458 17.929,129.092C12.725,133.427 7.907,138.223 2.908,142.804C2.125,143.522 1.323,144.221 0.53,144.928C0.353,144.81 0.177,144.691 0,144.573" style="fill:white;fill-rule:nonzero;"/>
        </g>
        <g transform="matrix(1.12186,0,0,1.12186,383.814,-5.18938)">
            <path d="M0,47.462L-42.676,45.873C-55.643,30.793 -68.646,15.64 -81.631,0.542C-81.396,0.289 -81.324,0.163 -81.216,0.109C-81.108,0.054 -80.909,0 -80.819,0.054C-54.921,15.117 -29.004,30.197 -3.106,45.277C-2.113,45.855 -1.156,46.487 -0.217,47.137C-0.126,47.209 -0.072,47.318 0,47.462" style="fill:white;fill-rule:nonzero;"/>
        </g>
        <g transform="matrix(1.12186,0,0,1.12186,324.774,46.2733)">
            <path d="M0,18.367C3.594,11.775 6.682,6.14 10.005,0.054C9.987,0.036 9.969,0.018 9.951,0L52.627,1.589C52.699,1.77 52.771,2.023 52.916,2.33C35.578,7.585 18.295,12.823 0,18.367" style="fill:white;fill-rule:nonzero;"/>
        </g>
    </g>
</svg>
